<svg width="67" height="28" viewBox="0 0 67 28" fill="none" xmlns="http://www.w3.org/2000/svg">
<path d="M27.9902 26V3.65625H32.4336V11.6416H34.541V3.65625H38.9844V26H34.541V15.8691H32.4336V26H27.9902Z" fill="white"/>
<path d="M43.0215 13.0938C42.5332 13.0938 42.1602 12.9805 41.9023 12.7539C41.6484 12.5273 41.4746 12.2168 41.3809 11.8223C41.2871 11.4277 41.2402 10.9805 41.2402 10.4805C41.2402 9.94531 41.293 9.50781 41.3984 9.16797C41.5039 8.82422 41.6836 8.54297 41.9375 8.32422C42.1953 8.10547 42.5488 7.91992 42.998 7.76758L44.2988 7.32227V6.41992C44.2988 5.94727 44.1445 5.71094 43.8359 5.71094C43.5547 5.71094 43.4141 5.90234 43.4141 6.28516V6.8125H41.375C41.3711 6.78125 41.3691 6.74219 41.3691 6.69531C41.3691 6.64453 41.3691 6.58789 41.3691 6.52539C41.3691 5.65039 41.5742 5.03125 41.9844 4.66797C42.3984 4.30078 43.0527 4.11719 43.9473 4.11719C44.416 4.11719 44.8359 4.20117 45.207 4.36914C45.5781 4.5332 45.8711 4.77734 46.0859 5.10156C46.3047 5.42578 46.4141 5.82617 46.4141 6.30273V13H44.3281V11.957C44.2266 12.3242 44.0586 12.6055 43.8242 12.8008C43.5898 12.9961 43.3223 13.0938 43.0215 13.0938ZM43.8477 11.4648C44.0195 11.4648 44.1367 11.3926 44.1992 11.248C44.2617 11.1035 44.293 10.9473 44.293 10.7793V8.33008C44.0039 8.44727 43.7793 8.5957 43.6191 8.77539C43.459 8.95117 43.3789 9.21094 43.3789 9.55469V10.6855C43.3789 11.2051 43.5352 11.4648 43.8477 11.4648ZM47.8227 14.4648V4.21094H49.9555V5.14844C50.0844 4.82422 50.2621 4.57227 50.4887 4.39258C50.7191 4.20898 51.0473 4.11719 51.473 4.11719C52.0473 4.11719 52.4516 4.32617 52.6859 4.74414C52.9242 5.16211 53.0434 5.70898 53.0434 6.38477V10.709C53.0434 11.1582 52.9789 11.5645 52.85 11.9277C52.725 12.2871 52.5258 12.5723 52.2523 12.7832C51.9828 12.9902 51.6293 13.0938 51.1918 13.0938C50.6215 13.0938 50.2094 12.75 49.9555 12.0625V14.4648H47.8227ZM50.4535 11.459C50.6723 11.459 50.8031 11.3496 50.8461 11.1309C50.893 10.9121 50.9164 10.6426 50.9164 10.3223V6.88867C50.9164 6.56445 50.893 6.29492 50.8461 6.08008C50.8031 5.86133 50.6723 5.75195 50.4535 5.75195C50.227 5.75195 50.0863 5.86328 50.0316 6.08594C49.9809 6.30469 49.9555 6.57227 49.9555 6.88867V10.3223C49.9555 10.6387 49.9809 10.9082 50.0316 11.1309C50.0863 11.3496 50.227 11.459 50.4535 11.459ZM54.4461 14.4648V4.21094H56.5789V5.14844C56.7078 4.82422 56.8855 4.57227 57.1121 4.39258C57.3426 4.20898 57.6707 4.11719 58.0965 4.11719C58.6707 4.11719 59.075 4.32617 59.3094 4.74414C59.5477 5.16211 59.6668 5.70898 59.6668 6.38477V10.709C59.6668 11.1582 59.6023 11.5645 59.4734 11.9277C59.3484 12.2871 59.1492 12.5723 58.8758 12.7832C58.6062 12.9902 58.2527 13.0938 57.8152 13.0938C57.2449 13.0938 56.8328 12.75 56.5789 12.0625V14.4648H54.4461ZM57.077 11.459C57.2957 11.459 57.4266 11.3496 57.4695 11.1309C57.5164 10.9121 57.5398 10.6426 57.5398 10.3223V6.88867C57.5398 6.56445 57.5164 6.29492 57.4695 6.08008C57.4266 5.86133 57.2957 5.75195 57.077 5.75195C56.8504 5.75195 56.7098 5.86328 56.6551 6.08594C56.6043 6.30469 56.5789 6.57227 56.5789 6.88867V10.3223C56.5789 10.6387 56.6043 10.9082 56.6551 11.1309C56.7098 11.3496 56.8504 11.459 57.077 11.459ZM60.8996 14.4648V13.1348H61.9074C62.0598 13.1348 62.1359 13.082 62.1359 12.9766C62.1359 12.9219 62.1301 12.8652 62.1184 12.8066L60.7414 4.21094H62.7512L63.3371 10.6797L64.0285 4.21094H66.05L64.4211 13.457C64.3625 13.7891 64.2492 14.0391 64.0812 14.207C63.9172 14.3789 63.6457 14.4648 63.2668 14.4648H60.8996ZM43.9766 26.0938C42.2266 26.0938 41.3516 25.1855 41.3516 23.3691V19.8418C41.3516 19.0137 41.584 18.3535 42.0488 17.8613C42.5137 17.3652 43.1562 17.1172 43.9766 17.1172C44.8008 17.1172 45.4453 17.3652 45.9102 17.8613C46.375 18.3535 46.6074 19.0137 46.6074 19.8418V23.3691C46.6074 25.1855 45.7305 26.0938 43.9766 26.0938ZM43.9766 24.4766C44.1523 24.4766 44.2773 24.4141 44.3516 24.2891C44.4297 24.1602 44.4688 23.998 44.4688 23.8027V19.5078C44.4688 18.9961 44.3047 18.7402 43.9766 18.7402C43.6484 18.7402 43.4844 18.9961 43.4844 19.5078V23.8027C43.4844 23.998 43.5215 24.1602 43.5957 24.2891C43.6738 24.4141 43.8008 24.4766 43.9766 24.4766ZM49.6801 26.0938C49.2113 26.0938 48.852 25.9961 48.602 25.8008C48.3559 25.6055 48.1879 25.334 48.098 24.9863C48.0082 24.6348 47.9633 24.2246 47.9633 23.7559V17.2109H50.0727V23.5098C50.0727 23.8613 50.1 24.1074 50.1547 24.248C50.2094 24.3848 50.3383 24.4531 50.5414 24.4531C50.7602 24.4531 50.8969 24.3555 50.9516 24.1602C51.0102 23.9648 51.0395 23.7129 51.0395 23.4043V17.2109H53.1312V26H51.0336V25.0625C50.9008 25.3984 50.7406 25.6543 50.5531 25.8301C50.3695 26.0059 50.0785 26.0938 49.6801 26.0938ZM54.575 26V17.2109H56.7078V18.1895C56.8094 17.8496 56.9891 17.584 57.2469 17.3926C57.5047 17.2012 57.8289 17.1055 58.2195 17.1055V18.8574C58.0477 18.8574 57.8426 18.877 57.6043 18.916C57.366 18.9512 57.157 19.002 56.9773 19.0684C56.7977 19.1309 56.7078 19.2012 56.7078 19.2793V26H54.575Z" fill="white"/>
<path d="M11.75 24.5C17.6871 24.5 22.5 19.6871 22.5 13.75C22.5 7.81294 17.6871 3 11.75 3C5.81294 3 1 7.81294 1 13.75C1 19.6871 5.81294 24.5 11.75 24.5Z" stroke="white" stroke-linecap="round" stroke-linejoin="round"/>
<g clip-path="url(#clip0_65_1284)">
<path d="M19.6255 13.4575L19.3488 13.4276C19.3325 13.4269 19.3162 13.4322 19.3031 13.4423C19.2899 13.4525 19.2809 13.4668 19.2778 13.4824C19.2379 13.5981 19.1818 13.7087 19.1111 13.8112C19.1045 13.8213 19.1 13.8325 19.0981 13.844C19.0961 13.8555 19.0967 13.8672 19.0997 13.8782C19.1148 13.921 19.1694 13.9217 19.2027 13.9602C19.1109 13.993 19.0206 13.9565 18.9423 14.0044C18.7041 14.1983 18.4352 14.3528 18.1476 14.4611C18.1235 14.4674 18.1009 14.479 18.0817 14.495C18.0625 14.5109 18.0471 14.5308 18.0369 14.553C17.9875 14.6554 17.889 14.6635 17.7961 14.673C17.6042 14.693 17.4154 14.6653 17.2246 14.6623C16.8164 14.7034 16.4076 14.6943 16.008 14.6353C15.0967 14.5104 14.2418 14.2383 13.4144 13.886C12.976 13.6995 12.5598 13.4741 12.1284 13.2764C11.9267 13.1841 11.7085 13.1275 11.4726 13.1493C11.4182 13.1801 11.4006 13.2368 11.3706 13.2844C11.2561 13.4668 11.087 13.5398 10.8783 13.4992C10.8356 13.4913 10.7843 13.4601 10.7577 13.5319C10.8314 13.9021 10.9441 14.262 11.0939 14.6062C11.2087 14.8763 11.3267 15.146 11.4815 15.3956C11.9406 16.1385 12.4982 16.7963 13.255 17.2758C13.3022 17.3057 13.3452 17.3554 13.4168 17.3287C13.4354 17.2712 13.4014 17.2306 13.3716 17.1916C13.2068 16.9722 13.0522 16.7457 12.876 16.5346C12.8692 16.5267 12.8589 16.5186 12.868 16.501C13.0199 16.5977 13.119 16.7417 13.2278 16.8749C13.439 17.1317 13.6662 17.3744 13.8537 17.6514C13.8646 17.6675 13.8807 17.6796 13.8997 17.686C13.9175 17.6701 13.9399 17.66 13.9635 17.6572C13.987 17.6544 14.0104 17.6591 14.03 17.6706C14.2479 17.7635 14.4765 17.834 14.7121 17.8811C14.7657 17.892 14.8279 17.9223 14.873 17.8508C14.8206 17.7455 14.7119 17.6967 14.6258 17.6262C14.4391 17.4734 14.2397 17.3338 14.0749 17.1575C14.0284 17.108 13.9372 17.0414 13.9805 16.9909C14.0343 16.928 14.1199 17.001 14.1829 17.0326C14.5272 17.2047 14.824 17.4398 15.1209 17.6766C15.2212 17.7565 15.3233 17.835 15.4191 17.9211C15.4332 17.9372 15.4508 17.9502 15.4708 17.9591C15.4908 17.968 15.5127 17.9727 15.5352 17.9729C16.6625 17.9604 17.6531 17.5353 18.5699 16.8852C18.5982 16.8674 18.6198 16.8409 18.631 16.8103C18.6294 16.74 18.5629 16.7314 18.5154 16.7088C18.144 16.5314 17.7657 16.3667 17.3889 16.1987C16.6531 15.8704 15.9556 15.477 15.2452 15.1051C14.7024 14.8214 14.1385 14.5753 13.5917 14.2967C12.9826 13.9864 12.3596 13.7014 11.772 13.3548C12.1336 13.5723 12.5393 13.7125 12.9249 13.8859C13.911 14.3323 14.8442 14.8714 15.8378 15.3048C16.3691 15.5366 16.8891 15.7881 17.3978 16.0594C17.781 16.2636 18.1529 16.4864 18.5454 16.6747C18.58 16.6907 18.6123 16.7173 18.6566 16.7132C18.7071 16.6924 18.731 16.6483 18.7546 16.6064C19.1186 15.9593 19.4549 15.3018 19.6603 14.5974C19.7384 14.3306 19.7907 14.0606 19.7694 13.7877C19.7593 13.6613 19.7385 13.5381 19.6255 13.4575Z" fill="#F4D520"/>
<path d="M13.4154 17.3249C13.1008 17.1641 12.8368 16.9403 12.5809 16.7085C12.2772 16.4278 12.0059 16.116 11.7715 15.778C11.533 15.4369 11.3312 15.072 11.1692 14.6885C11.014 14.3243 10.8887 13.9475 10.7943 13.5614C10.7875 13.5433 10.7788 13.526 10.7682 13.5099C10.7638 13.4807 10.7438 13.4742 10.7164 13.478C10.7121 13.848 10.7942 14.2014 10.8736 14.5546C11.089 15.5108 11.3732 16.4442 11.6658 17.3776C11.9445 18.2661 12.2472 19.1457 12.5455 20.027C12.6867 20.4456 12.8435 20.8594 12.9932 21.2753C13.051 21.3341 13.1261 21.3521 13.2094 21.3616C13.5441 21.3992 13.8603 21.3066 14.1693 21.1789C14.7885 20.9229 15.3332 20.547 15.8501 20.1288C16.7439 19.4052 17.4944 18.5616 18.1306 17.6234C18.2683 17.42 18.3989 17.2129 18.5276 17.0043C18.554 16.9619 18.5979 16.9199 18.5717 16.8635C18.4932 16.9032 18.4166 16.9466 18.3423 16.9935C17.7298 17.4242 17.033 17.7224 16.3032 17.8658C16.0777 17.911 15.8493 17.9337 15.6217 17.9335C15.5853 17.9297 15.548 17.9365 15.5143 17.953C15.5146 18.0351 15.5844 18.07 15.6337 18.1158C15.8214 18.2861 15.9963 18.4691 16.1571 18.6634C16.1987 18.706 16.2283 18.7583 16.2434 18.8158C16.0539 18.7415 15.9112 18.6193 15.7618 18.5113C15.511 18.3303 15.2773 18.1282 15.0327 17.9399C14.986 17.904 14.9493 17.8446 14.8713 17.8614C14.7103 17.8814 14.5691 17.8189 14.4255 17.7806C14.2505 17.7327 14.0837 17.6615 13.908 17.5983C13.8909 17.6315 13.9233 17.6516 13.9293 17.6777C13.9121 17.7876 14.0273 17.8506 14.0221 17.9642C13.9675 17.9617 13.9461 17.9218 13.9197 17.8926C13.781 17.7404 13.6619 17.5725 13.5346 17.4113C13.5029 17.3715 13.4777 17.3249 13.4154 17.3249Z" fill="#E3C220"/>
<path d="M18.5711 16.8625C17.8697 18.0477 17.0195 19.1194 15.9336 20.0138C15.5922 20.2997 15.2294 20.5601 14.8485 20.7928C14.4779 21.0155 14.0962 21.2043 13.6739 21.3C13.4397 21.3533 13.2124 21.3553 12.9923 21.2744C13.1756 21.7801 13.3588 22.2858 13.5419 22.7916C13.5576 22.8347 13.5714 22.88 13.6192 22.9017C13.6208 22.895 13.624 22.8886 13.6284 22.883C13.6328 22.8774 13.6383 22.8727 13.6447 22.8693C13.651 22.8659 13.6579 22.8638 13.665 22.8632C13.6721 22.8626 13.6791 22.8635 13.6856 22.8658C13.9718 22.9217 14.2356 22.8203 14.4944 22.7044C15.3146 22.3359 16.0099 21.786 16.6829 21.2089C17.5008 20.5081 18.2474 19.733 18.9112 18.8954C19.2571 18.4568 19.5761 17.9998 19.8664 17.5269C19.8936 17.4906 19.9112 17.4488 19.9176 17.4054C19.9113 17.3559 19.8704 17.337 19.8306 17.3193C19.4588 17.1455 19.0866 16.9727 18.7138 16.8008C18.693 16.7895 18.6692 16.7837 18.6447 16.7841C18.639 16.7854 18.6336 16.7881 18.6291 16.7919C18.6246 16.7957 18.6211 16.8005 18.6189 16.8058L18.5711 16.8625Z" fill="#F5EE90"/>
<path d="M19.1163 13.8827L19.3493 13.4273C17.206 13.1895 15.061 12.9685 12.8929 12.9068C12.479 12.8898 12.0629 12.8968 11.6469 12.9277C11.5229 12.9787 11.4738 13.0478 11.4834 13.1557C11.5652 13.1923 11.6577 13.1741 11.7449 13.1891C12.0773 13.247 12.3513 13.4184 12.6401 13.5614C13.1237 13.7994 13.6209 14.0126 14.1301 14.2004C14.4759 14.3281 14.8311 14.4339 15.1937 14.5171C15.7544 14.6464 16.3262 14.7417 16.9181 14.7102C17.0197 14.7047 17.1213 14.7187 17.222 14.6862C17.2071 14.6302 17.1524 14.6462 17.1129 14.6372C16.9703 14.6041 16.8226 14.582 16.7045 14.4889C16.735 14.4517 16.7679 14.4659 16.7985 14.4667C17.118 14.4837 17.4367 14.5073 17.7564 14.5206C17.8616 14.527 17.9641 14.5488 18.0606 14.5855C18.063 14.494 18.1451 14.502 18.201 14.4785C18.4878 14.3652 18.7545 14.205 18.9891 14.0054C18.9648 13.9497 18.9088 13.9629 18.8634 13.9615C18.4759 13.952 18.1004 13.8801 17.7155 13.8589C18.0352 13.7899 18.351 13.7998 18.6639 13.8469C18.7798 13.8639 18.8945 13.8837 19.0113 13.8955C19.0471 13.8988 19.0834 13.9142 19.1163 13.8827Z" fill="#FFE320"/>
<path d="M18.6445 16.7931C19.029 16.974 19.4133 17.1549 19.7976 17.3359C19.8325 17.3517 19.8667 17.3722 19.9012 17.3908C19.958 17.3789 19.9775 17.3305 20.0013 17.2895C20.3725 16.6575 20.6901 15.9999 20.9508 15.3234C21.0893 14.9669 21.1912 14.6 21.2551 14.2283C21.2739 14.095 21.276 13.9609 21.2612 13.8291C21.2549 13.7586 21.2413 13.6886 21.1658 13.6545C20.9353 13.5963 20.6994 13.5846 20.4639 13.5542C20.1853 13.5168 19.9052 13.4892 19.6263 13.4588C19.7985 13.7142 19.7659 14.0041 19.7035 14.2884C19.5147 15.1504 19.1164 15.9406 18.6545 16.7069C18.6273 16.7337 18.613 16.7625 18.6445 16.7931Z" fill="#FCF6C2"/>
<path d="M21.1652 13.6534C21.2747 13.8346 21.2508 14.0373 21.2216 14.2373C21.1425 14.7721 20.9526 15.28 20.7344 15.7819C20.4936 16.334 20.227 16.8757 19.9013 17.3908C19.6984 17.7671 19.4507 18.1183 19.1976 18.4661C18.8182 18.9796 18.4058 19.4706 17.9631 19.9358C17.4681 20.4635 16.9386 20.9603 16.3781 21.4228C16.0446 21.6988 15.6963 21.9573 15.335 22.1972C15.0577 22.3861 14.7638 22.5498 14.4572 22.6859C14.183 22.8035 13.9021 22.9134 13.5994 22.8128C13.5835 22.8521 13.6178 22.8736 13.619 22.9007C13.6891 22.9946 13.7891 23.0634 13.9052 23.0975C14.0212 23.1316 14.1476 23.1294 14.2668 23.0911C14.7702 22.9356 15.2325 22.6894 15.6631 22.3906C17.7262 20.9604 19.2985 19.1138 20.5802 17.0286C21.0055 16.3339 21.3583 15.6083 21.5567 14.8281C21.6031 14.6503 21.6339 14.4699 21.6486 14.2889C21.6713 13.9736 21.463 13.7009 21.1652 13.6534Z" fill="#FFE320"/>
<path d="M11.4833 13.1554C11.5092 13.0648 11.5672 12.984 11.6468 12.9274C11.3751 12.9132 11.1252 12.9921 10.892 13.1363C10.7616 13.217 10.6958 13.3294 10.7159 13.4769C10.7331 13.4878 10.7505 13.4982 10.7676 13.5088C10.827 13.5037 10.8741 13.5397 10.9287 13.5458C11.1012 13.5649 11.2744 13.4881 11.3907 13.3111C11.4225 13.2614 11.4525 13.2077 11.4833 13.1554Z" fill="#FBC10E"/>
<path d="M18.6445 16.7931L18.6537 16.7056C17.6324 16.1512 16.612 15.597 15.5372 15.1317C14.7187 14.7762 13.9534 14.329 13.1455 13.955C12.669 13.7345 12.1715 13.553 11.7036 13.3137C11.8762 13.4491 12.0634 13.5668 12.2624 13.6649C13.3097 14.1836 14.3608 14.6954 15.4029 15.2231C16.0612 15.5561 16.7011 15.9209 17.3767 16.2245C17.7524 16.3932 18.1275 16.5628 18.5017 16.7333C18.5435 16.7524 18.5952 16.7601 18.6191 16.8057L18.6445 16.7931Z" fill="#FBF3A2"/>
<path d="M14.8692 17.8616C15.1571 18.0859 15.4427 18.3135 15.7344 18.5336C15.8847 18.6516 16.0462 18.7561 16.217 18.846C16.2405 18.8577 16.267 18.8829 16.2931 18.8589C16.3192 18.8348 16.2913 18.8079 16.2787 18.7869C16.1366 18.5469 15.9285 18.3577 15.7306 18.1621C15.6592 18.0914 15.586 18.0221 15.5136 17.9524C15.2127 17.7132 14.9213 17.4627 14.6013 17.2458C14.4488 17.1369 14.2853 17.0426 14.1128 16.9641C14.0562 16.9398 13.9765 16.8821 13.9261 16.9462C13.8757 17.0104 13.9518 17.0705 13.9919 17.117C14.094 17.2332 14.2077 17.3394 14.3314 17.4343C14.5119 17.5749 14.6909 17.7182 14.8692 17.8616Z" fill="#FCF4A7"/>
<path d="M18.2969 15.7701C18.1966 15.6368 18.0501 15.5637 17.9116 15.4898C17.3068 15.1642 16.6677 14.9062 15.9835 14.7492C15.9167 14.7361 15.8489 14.727 15.7804 14.7218C15.7643 14.7188 15.7473 14.7211 15.7321 14.7285C15.7169 14.7358 15.7045 14.7478 15.6968 14.7624C15.6808 14.795 15.7098 14.8131 15.7278 14.8314C15.812 14.9158 15.9227 14.9635 16.0329 15.0051C16.727 15.2665 17.4061 15.5621 18.1248 15.7672C18.1753 15.7806 18.2286 15.8067 18.2969 15.7701Z" fill="#FCF4A7"/>
<path d="M15.5343 16.0715C15.5163 16.0207 15.4858 15.9755 15.4455 15.9394C15.4051 15.9033 15.356 15.8774 15.302 15.8637C15.0213 15.7912 14.7986 15.6327 14.597 15.4489C14.388 15.2581 14.1129 15.1596 13.8994 14.975C13.7948 14.8847 13.6501 14.9435 13.5269 14.9919C13.4683 15.0151 13.4933 15.0526 13.5218 15.0853C13.6458 15.2287 13.8142 15.3189 13.9844 15.4009C14.1993 15.5004 14.4037 15.6183 14.5952 15.7533C14.7619 15.8755 14.9663 15.9288 15.167 15.9829C15.2839 16.0146 15.3896 16.0825 15.5343 16.0715Z" fill="#FCF4A7"/>
<path d="M14.8076 16.7959C14.7499 16.7018 14.6655 16.6264 14.5637 16.5779C14.1507 16.3681 13.791 16.0853 13.4088 15.8335C13.2812 15.7494 13.1629 15.6534 13.0554 15.5468C12.9246 15.4172 12.7305 15.4327 12.5782 15.352C13.1795 16.0093 13.9505 16.4316 14.8076 16.7959Z" fill="#FCF3A7"/>
<path d="M13.4154 17.3249C13.5753 17.5228 13.7327 17.7225 13.8968 17.917C13.9375 17.9652 13.9832 18.0628 14.057 18.015C14.1101 17.9806 14.0516 17.8948 14.0207 17.8382C13.9898 17.7817 13.9596 17.7304 13.929 17.6765C13.801 17.5179 13.6764 17.3566 13.5466 17.1997C13.3737 16.9917 13.1993 16.7849 13.0213 16.5812C12.9615 16.5129 12.8919 16.4508 12.784 16.4382C12.9841 16.7423 13.2202 17.0195 13.4154 17.3249Z" fill="#FCF3A6"/>
<path d="M18.0598 14.5867C18.0192 14.5149 17.9408 14.5116 17.8711 14.5051C17.4994 14.4789 17.1264 14.4586 16.7542 14.4376C16.7199 14.4357 16.6713 14.4187 16.6548 14.4605C16.6383 14.5022 16.6843 14.5232 16.7187 14.5429C16.8728 14.6294 17.0504 14.6502 17.2209 14.6875C17.4135 14.7003 17.6054 14.7241 17.8008 14.7035C17.8983 14.6928 17.9974 14.6829 18.0598 14.5867Z" fill="#FCF3A7"/>
<path d="M11.7628 13.8992C11.814 13.9613 11.8686 14.0208 11.9263 14.0772C12.1513 14.276 12.3916 14.4547 12.674 14.5776C12.7433 14.6074 12.8441 14.6593 12.8954 14.5832C12.9321 14.53 12.8286 14.4815 12.7783 14.4473C12.475 14.2398 12.167 14.0381 11.8592 13.8367C11.8322 13.8193 11.7969 13.788 11.761 13.8123C11.725 13.8365 11.7521 13.8689 11.7628 13.8992Z" fill="#FCF3A6"/>
<path d="M19.1164 13.8827C18.7057 13.8282 18.2996 13.7399 17.8734 13.7983C17.784 13.8065 17.6955 13.8271 17.6108 13.8594C17.6844 13.9018 17.7541 13.8933 17.8193 13.8991C18.2087 13.9345 18.5986 13.9699 18.9891 14.0054C19.0533 14.0046 19.116 14.0047 19.1796 13.999C19.2043 13.9967 19.2438 14.0003 19.2515 13.9675C19.2608 13.9266 19.2189 13.9233 19.1928 13.911C19.1667 13.8987 19.1419 13.8921 19.1164 13.8827Z" fill="#FCF3A6"/>
<path d="M16.0112 16.3177C16.0068 16.3558 16.037 16.3633 16.0612 16.3749C16.4352 16.5683 16.8073 16.7639 17.1827 16.9544C17.2549 16.9908 17.3502 17.07 17.4147 17.0011C17.4468 16.9654 17.3251 16.8848 17.2575 16.8437C16.9071 16.6298 16.5627 16.4003 16.1365 16.3237C16.0948 16.3156 16.0559 16.2853 16.0112 16.3177Z" fill="#FCF3A6"/>
<path d="M11.5179 14.4617C11.5042 14.6216 11.603 14.738 11.6812 14.8572C11.8425 15.1027 12.0028 15.3485 12.1513 15.6013C12.2608 15.7886 12.4018 15.9477 12.5303 16.1185L12.5554 16.1015L11.5518 14.45L11.5179 14.4617Z" fill="#FCF3A6"/>
<path d="M15.3031 16.9974C15.4944 17.1793 15.7142 17.3184 15.9812 17.3851C16.0254 17.3957 16.0891 17.4116 16.1124 17.357C16.1358 17.3025 16.0749 17.2854 16.0381 17.267C15.8154 17.1557 15.5918 17.0467 15.3675 16.9399C15.3447 16.9286 15.3172 16.9064 15.2908 16.9353C15.2669 16.9606 15.2889 16.9784 15.3031 16.9974Z" fill="#FCF3A6"/>
<path d="M11.6443 13.3028C11.659 13.2849 11.6511 13.2765 11.6404 13.2737C11.6256 13.2708 11.6106 13.2691 11.5954 13.2685C11.5984 13.2771 11.5987 13.2905 11.6051 13.2936C11.6176 13.2983 11.6308 13.3014 11.6443 13.3028Z" fill="#FAEA73"/>
<path d="M11.4805 13.268C11.4949 13.2699 11.5116 13.2764 11.5255 13.2725C11.5393 13.2686 11.535 13.2522 11.5246 13.2488C11.5098 13.2459 11.4946 13.2448 11.4793 13.2456L11.4805 13.268Z" fill="#F6DF4B"/>
<path d="M11.7475 15.8625C11.7568 16.067 11.8174 16.2556 11.8884 16.4377C12.1279 17.0439 12.2766 17.678 12.4282 18.3119C12.5368 18.764 12.6653 19.2105 12.9041 19.6159C12.9783 19.7416 13.0237 19.8836 13.0875 20.0159C13.1264 20.0955 13.1735 20.1707 13.2281 20.2405C13.0695 18.6588 12.4072 17.2603 11.7475 15.8625Z" fill="#FCF3A7"/>
<path d="M14.2874 20.2373C14.3512 19.9358 13.4803 17.9635 13.1946 17.762C13.1925 17.9666 14.1331 20.0971 14.2874 20.2373Z" fill="#FCF3A7"/>
<path d="M15.159 19.1327C14.9888 18.8862 14.8368 18.6577 14.6309 18.4702C14.5889 18.4239 14.5341 18.39 14.4722 18.3721C14.4387 18.3651 14.3988 18.3371 14.3712 18.3741C14.3485 18.4048 14.3654 18.4426 14.3832 18.4741C14.4749 18.6359 14.6062 18.7699 14.7206 18.9152C14.8638 19.0973 15.0139 19.2737 15.1621 19.4518C15.1856 19.4798 15.2108 19.5269 15.256 19.5002C15.2936 19.4789 15.2688 19.4345 15.2579 19.4029C15.2241 19.3042 15.1867 19.2071 15.159 19.1327Z" fill="#FCF3A6"/>
<path d="M18.0422 18.5108C18.0755 18.5661 18.1326 18.5854 18.1991 18.5388C18.286 18.4778 18.3672 18.408 18.4499 18.3415C18.4647 18.3278 18.4742 18.3098 18.4769 18.2906C18.4842 18.2509 18.2661 18.0663 18.2261 18.0765C18.1803 18.0882 18.172 18.1161 18.1796 18.1577C18.196 18.24 18.1665 18.3005 18.0811 18.3421C18.0074 18.3792 18.0003 18.4381 18.0422 18.5108Z" fill="#E9E07D"/>
<path d="M17.5168 19.6237C17.6768 19.527 17.731 19.3852 17.7727 19.2391C17.7846 19.1967 17.7959 19.1369 17.7314 19.1229C17.7072 19.1178 17.6814 19.122 17.6593 19.1345C17.6371 19.1471 17.6203 19.1671 17.6122 19.1904C17.5571 19.3285 17.4323 19.4198 17.3535 19.5431C17.3338 19.5757 17.2838 19.6015 17.3132 19.644C17.3393 19.6819 17.3879 19.6618 17.4262 19.6558C17.4574 19.6486 17.4878 19.6378 17.5168 19.6237Z" fill="#E9E07D"/>
<path d="M15.045 21.0789C14.9021 21.1599 14.7813 21.4384 14.8263 21.5778C14.8383 21.6145 14.8555 21.6536 14.9058 21.6507C14.9243 21.651 14.9427 21.6444 14.9571 21.6323C14.9716 21.6202 14.981 21.6035 14.9836 21.5856C14.9959 21.4361 15.0958 21.3211 15.1579 21.1912C15.1763 21.1523 15.2129 21.1042 15.1774 21.0705C15.1419 21.0368 15.0872 21.0746 15.045 21.0789Z" fill="#E9E07D"/>
<path d="M18.1122 19.337C18.2467 19.2113 18.3375 19.0489 18.3706 18.8747C18.3727 18.8669 18.3731 18.8589 18.3719 18.8512C18.3707 18.8434 18.3678 18.8361 18.3635 18.8296C18.3592 18.8232 18.3535 18.8177 18.3468 18.8135C18.3401 18.8093 18.3325 18.8066 18.3245 18.8054C18.2925 18.7961 18.2596 18.7919 18.2351 18.8229C18.2063 18.8523 18.1829 18.8861 18.1659 18.9227C18.131 19.0304 18.0886 19.131 18.0058 19.2174C17.9967 19.2262 17.9894 19.2365 17.9844 19.2478C17.9794 19.2591 17.9769 19.2712 17.9769 19.2832C17.9769 19.2952 17.9795 19.307 17.9846 19.3177C17.9896 19.3284 17.9969 19.3379 18.0061 19.3455C18.043 19.3795 18.0807 19.3563 18.1122 19.337Z" fill="#E9E07D"/>
<path d="M14.3667 21.9597C14.3728 21.9651 14.375 21.9696 14.3784 21.9701C14.5399 22.0065 14.6504 22.1341 14.8092 22.1741C14.8534 22.1847 14.8998 22.1769 14.917 22.1223C14.9342 22.0677 14.9034 22.0182 14.8542 22.019C14.734 22.0205 14.6575 21.9523 14.5678 21.8985C14.5238 21.8717 14.4698 21.8628 14.4169 21.8735C14.3626 21.8843 14.3594 21.9211 14.3667 21.9597Z" fill="#E9E17D"/>
<path d="M13.4358 21.8096C13.5303 21.8994 13.6562 21.953 13.7921 21.9611C13.8086 21.9619 13.8252 21.957 13.8388 21.9472C13.8525 21.9373 13.8623 21.9233 13.8664 21.9075C13.8687 21.9019 13.8697 21.8959 13.8692 21.89C13.8687 21.8841 13.8668 21.8785 13.8636 21.8735C13.8605 21.8686 13.8561 21.8645 13.851 21.8616C13.8458 21.8586 13.8399 21.8569 13.8338 21.8566C13.7182 21.832 13.6244 21.769 13.5282 21.7091C13.5146 21.6979 13.4971 21.6918 13.4787 21.6918C13.4603 21.6918 13.442 21.6979 13.427 21.7092C13.3929 21.7413 13.415 21.7744 13.4358 21.8096Z" fill="#E9E17D"/>
<path d="M16.3584 20.2779C16.4229 20.257 16.4733 20.1935 16.5369 20.1493C16.5763 20.1217 16.5956 20.0843 16.5559 20.052C16.5223 20.0244 16.466 20.0079 16.4403 20.0576C16.396 20.1433 16.3096 20.1641 16.2393 20.2114C16.1953 20.241 16.1297 20.2735 16.1577 20.3271C16.191 20.3905 16.2482 20.3364 16.2939 20.3144C16.3121 20.3055 16.3294 20.2943 16.3584 20.2779Z" fill="#E9E17D"/>
<path d="M16.7234 19.7737C16.7604 19.7075 16.8338 19.704 16.9011 19.6887C16.9134 19.6878 16.9255 19.6847 16.9368 19.6795C16.9848 19.6441 17.0609 19.6092 17.0375 19.547C17.0141 19.4847 16.9511 19.5443 16.9079 19.553C16.8197 19.5713 16.7485 19.6352 16.6587 19.6586C16.6462 19.6612 16.6346 19.6669 16.6247 19.675C16.6149 19.6831 16.6073 19.6933 16.6026 19.7048C16.5979 19.7163 16.5963 19.7286 16.5979 19.7405C16.5996 19.7524 16.6045 19.7635 16.6121 19.7727C16.6403 19.8137 16.68 19.8043 16.7234 19.7737Z" fill="#E9E17D"/>
<path d="M15.562 21.6935C15.6099 21.6742 15.6346 21.6004 15.7068 21.5741C15.7473 21.5593 15.7309 21.5248 15.6884 21.5133C15.598 21.4886 15.3742 21.5826 15.3276 21.6649C15.2944 21.7236 15.3159 21.7474 15.3781 21.7432C15.4415 21.7387 15.5041 21.7218 15.562 21.6935Z" fill="#E9E17D"/>
<path d="M14.3481 21.5499C14.3875 21.5341 14.4207 21.506 14.4421 21.4703C14.4583 21.4387 14.4519 21.4099 14.4145 21.4115C14.321 21.4156 14.218 21.3835 14.144 21.4803C14.1352 21.4889 14.127 21.4981 14.1195 21.5077C14.0989 21.545 14.0044 21.5163 14.0318 21.5802C14.0522 21.6271 14.1249 21.6097 14.1762 21.6052C14.2368 21.6025 14.2964 21.5833 14.3481 21.5499Z" fill="#E9E17D"/>
<path d="M15.969 21.2194C16.0164 21.1601 16.0936 21.1487 16.1683 21.1275C16.1906 21.1234 16.2119 21.1145 16.2305 21.1013C16.2491 21.0882 16.2646 21.0712 16.2756 21.0517C16.2858 21.0306 16.2977 21.0064 16.2803 20.9853C16.2728 20.9764 16.262 20.9706 16.25 20.969C16.238 20.9673 16.2255 20.9698 16.2148 20.9761C16.1102 21.0229 16.0002 21.0574 15.9036 21.1228C15.8671 21.1474 15.8311 21.1735 15.8559 21.2175C15.8808 21.2614 15.9236 21.2458 15.969 21.2194Z" fill="#E9E17D"/>
<path d="M19.0218 17.9563C18.9672 17.9017 18.9187 17.8451 18.8497 17.8144C18.8184 17.8001 18.7738 17.7734 18.741 17.8247C18.7082 17.8761 18.7311 17.9058 18.7765 17.9293C18.8263 17.9536 18.8671 17.9915 18.8942 18.0385C18.915 18.0752 18.95 18.112 19.0019 18.0815C19.062 18.046 19.0294 17.9986 19.0218 17.9563Z" fill="#E9E17D"/>
<path d="M19.2901 17.607C19.3141 17.5866 19.3393 17.5663 19.3631 17.5442C19.3956 17.5133 19.447 17.4711 19.4183 17.436C19.3829 17.3924 19.3194 17.3699 19.2664 17.3405C19.2618 17.3377 19.2382 17.3535 19.2392 17.3559C19.2659 17.4401 19.201 17.4908 19.1588 17.5513C19.1403 17.5779 19.1603 17.6057 19.1794 17.6241C19.2183 17.6637 19.2503 17.6142 19.2901 17.607Z" fill="#DED476"/>
<path d="M17.4831 18.7891C17.6472 18.7874 17.7845 18.6682 17.7941 18.5367C17.796 18.5111 17.8025 18.4789 17.7693 18.466C17.7566 18.4601 17.7417 18.4594 17.7278 18.4641C17.7139 18.4689 17.7022 18.4786 17.6953 18.4912C17.691 18.4979 17.6889 18.5062 17.684 18.5125C17.6207 18.6004 17.5568 18.6879 17.4831 18.7891Z" fill="#E9E17D"/>
<path d="M15.7818 20.8727C15.8346 20.8385 15.9092 20.8144 15.8647 20.7453C15.817 20.6711 15.7436 20.707 15.6812 20.7424C15.6265 20.7733 15.5523 20.8225 15.5886 20.8757C15.633 20.9413 15.7194 20.9056 15.7818 20.8727Z" fill="#E9E17D"/>
<path d="M13.8941 22.2619C13.8597 22.2814 13.8292 22.3012 13.8544 22.3443C13.8816 22.3923 14.0732 22.4048 14.1369 22.3648C14.1704 22.3437 14.1833 22.3211 14.1623 22.2874C14.1276 22.233 13.968 22.2176 13.8941 22.2619Z" fill="#E9E17D"/>
<path d="M17.5494 20.0042C17.6079 19.9706 17.6574 19.9236 17.6933 19.8678C17.7151 19.8387 17.742 19.7993 17.7099 19.7729C17.6824 19.7507 17.6442 19.7656 17.6136 19.7965C17.5736 19.8366 17.5259 19.8697 17.4855 19.9076C17.4506 19.9398 17.3939 19.9779 17.4263 20.0237C17.4617 20.0774 17.5103 20.0181 17.5494 20.0042Z" fill="#E9E17D"/>
<path d="M16.9685 20.2799C16.9827 20.2718 16.9974 20.2635 17.0116 20.2554C17.0579 20.2292 17.1227 20.1925 17.0925 20.1419C17.0586 20.0821 17.0133 20.1512 16.9727 20.1692C16.9165 20.1941 16.8587 20.2149 16.7998 20.2315C16.7549 20.2441 16.7156 20.2643 16.7265 20.3087C16.7363 20.3462 16.7851 20.3378 16.82 20.3387C16.8783 20.3391 16.9215 20.3047 16.9685 20.2799Z" fill="#E9E17D"/>
<path d="M18.9776 17.2597C18.9496 17.2643 18.9226 17.2744 18.8982 17.2893C18.8737 17.3042 18.8524 17.3235 18.8356 17.3462C18.8053 17.3865 18.7801 17.429 18.808 17.4776C18.8115 17.4847 18.8166 17.4908 18.8229 17.4956C18.8292 17.5004 18.8366 17.5039 18.8446 17.5056C18.8526 17.5074 18.861 17.5074 18.8692 17.5058C18.8774 17.5042 18.8853 17.5009 18.8922 17.4961C18.9338 17.4616 19.0014 17.4407 18.9974 17.3721C18.9928 17.3342 18.9862 17.2967 18.9776 17.2597Z" fill="#DED477"/>
<path d="M17.3285 19.1677C17.3688 19.1424 17.4099 19.1091 17.3769 19.0805C17.3117 19.0234 17.2356 19.049 17.1675 19.0986C17.1382 19.1199 17.07 19.1364 17.1121 19.181C17.1819 19.2529 17.2619 19.1723 17.3285 19.1677Z" fill="#E9E17D"/>
<path d="M16.753 20.6427C16.7188 20.6667 16.6563 20.6811 16.6796 20.7345C16.6994 20.7788 16.7512 20.7712 16.7959 20.7523C16.7996 20.7503 16.8034 20.7487 16.8074 20.7476C16.8614 20.733 16.923 20.7298 16.9489 20.6674C16.9504 20.6627 16.951 20.6578 16.9505 20.653C16.9501 20.6481 16.9487 20.6435 16.9463 20.6393C16.9439 20.6352 16.9407 20.6315 16.9368 20.6287C16.9329 20.6258 16.9283 20.6238 16.9235 20.6227C16.8973 20.6091 16.867 20.6037 16.8366 20.6073C16.8062 20.6109 16.777 20.6232 16.753 20.6427Z" fill="#E9E17D"/>
<path d="M18.3631 17.7147C18.4767 17.6806 18.5131 17.6045 18.5458 17.5268C18.5516 17.5136 18.5527 17.4992 18.549 17.4858C18.5453 17.4725 18.5371 17.461 18.5255 17.4531C18.4897 17.4289 18.4785 17.4705 18.458 17.4857C18.3817 17.5399 18.3916 17.6234 18.3631 17.7147Z" fill="#E9E17D"/>
<path d="M18.7426 18.4211L18.6874 18.493C18.6698 18.5127 18.657 18.5358 18.6501 18.5606C18.6431 18.5853 18.6422 18.6109 18.6474 18.6353C18.6514 18.654 18.6708 18.6626 18.6827 18.6552C18.7345 18.6226 18.7845 18.5833 18.7924 18.5218C18.7965 18.4839 18.8288 18.4457 18.8018 18.4096C18.7873 18.3908 18.7662 18.4095 18.7426 18.4211Z" fill="#E9E17D"/>
<path d="M16.1809 20.6566C16.2016 20.6727 16.2274 20.6818 16.2546 20.6829C16.2819 20.684 16.3094 20.6768 16.3332 20.6625C16.3766 20.6379 16.4697 20.6262 16.4387 20.5614C16.4144 20.5104 16.3339 20.5517 16.2843 20.572C16.2462 20.5879 16.2166 20.626 16.1809 20.6566Z" fill="#E9E17D"/>
<path d="M17.0998 13.8081C17.0016 13.7365 16.9005 13.703 16.7949 13.7176C16.4518 13.7649 16.1465 13.6522 15.8351 13.5693C15.7597 13.5438 15.6804 13.5289 15.5994 13.5248C15.465 13.5222 15.3333 13.4979 15.2099 13.453C15.1345 13.426 15.0508 13.4229 14.9705 13.4444C14.8903 13.4658 14.8175 13.5106 14.7625 13.5725C14.7119 13.6275 14.7436 13.6545 14.7944 13.678C14.9442 13.7488 15.1117 13.7661 15.2745 13.7797C15.5574 13.8014 15.8392 13.8159 16.114 13.8829C16.286 13.9254 16.9438 13.8672 17.0998 13.8081Z" fill="#FCF4A7"/>
<path d="M15.9616 14.2816C15.8816 14.243 15.7948 14.2175 15.7048 14.2059C15.1843 14.1403 14.6663 14.059 14.1743 13.8947C14.0242 13.8448 13.8775 13.894 13.7077 13.8763C13.9544 14.104 15.5142 14.3801 15.9616 14.2816Z" fill="#FCF3A6"/>
<path d="M13.9882 13.4947C13.9951 13.4851 14.0112 13.4724 14.0112 13.4603C14.0125 13.4268 13.9814 13.4159 13.9559 13.4093C13.832 13.3773 13.7086 13.3436 13.5824 13.3193C13.2993 13.266 13.0133 13.2143 12.7303 13.1641C12.6921 13.1573 12.6387 13.1373 12.6183 13.1774C12.5911 13.2326 12.6572 13.2461 12.6904 13.2636C13.0409 13.4412 13.4238 13.5167 13.8259 13.5251C13.8806 13.5203 13.935 13.5101 13.9882 13.4947Z" fill="#FCF3A7"/>
<path d="M20.192 13.82C20.2501 13.8754 20.2199 13.9367 20.1866 13.9919C20.1434 14.062 20.1407 14.1248 20.2125 14.1639C20.2843 14.2029 20.3463 14.1593 20.3856 14.0943C20.4248 14.0293 20.4569 13.9673 20.4894 13.9026C20.5009 13.8771 20.5099 13.8506 20.5162 13.8237C20.5299 13.775 20.4923 13.7269 20.462 13.7443C20.3489 13.8084 20.2703 13.6278 20.1665 13.7312C20.1404 13.7552 20.1563 13.7982 20.192 13.82Z" fill="#F5EE90"/>
<path d="M20.1516 15.4303C20.2745 15.3632 20.3599 15.1343 20.325 14.9613C20.32 14.935 20.3089 14.9099 20.3042 14.8834C20.2962 14.8356 20.2601 14.8218 20.2177 14.8205C20.2074 14.8201 20.197 14.8219 20.1872 14.8258C20.1774 14.8297 20.1686 14.8357 20.1613 14.8432C20.1541 14.8508 20.1486 14.8597 20.1452 14.8693C20.1419 14.879 20.1409 14.8891 20.1422 14.899C20.1519 15.0591 20.0582 15.204 20.0469 15.36C20.0447 15.388 20.0129 15.4227 20.0581 15.4413C20.0728 15.4478 20.0892 15.4502 20.1057 15.4482C20.1222 15.4463 20.138 15.4401 20.1516 15.4303Z" fill="#F5EF91"/>
<path d="M20.523 14.8435C20.528 14.8562 20.5372 14.8667 20.5493 14.8734C20.5614 14.8801 20.5757 14.8827 20.59 14.8807C20.6084 14.879 20.6264 14.8726 20.642 14.8622C20.6575 14.8517 20.6702 14.8376 20.6786 14.8213C20.7441 14.6606 20.7558 14.487 20.712 14.3258C20.7067 14.309 20.6958 14.2946 20.681 14.2847C20.6662 14.2748 20.6482 14.27 20.6297 14.2709C20.5893 14.2671 20.5753 14.3017 20.5577 14.3281C20.5501 14.3377 20.5453 14.3491 20.5438 14.3609C20.5412 14.5148 20.5511 14.6684 20.5155 14.8221C20.5139 14.8287 20.5202 14.8365 20.523 14.8435Z" fill="#F5EF91"/>
<path d="M19.5079 16.2499C19.5513 16.2253 19.5692 16.2151 19.5871 16.205C19.6262 16.1828 19.6583 16.1511 19.628 16.1106C19.6005 16.0734 19.5461 16.0583 19.5125 16.0962C19.4467 16.1709 19.3591 16.1881 19.273 16.213C19.2391 16.2266 19.209 16.2484 19.1858 16.2763C19.1759 16.2838 19.1687 16.2942 19.1652 16.3058C19.1617 16.3173 19.1622 16.3294 19.1667 16.3402C19.1808 16.3753 19.2107 16.3626 19.2385 16.3565C19.3439 16.3321 19.4291 16.2592 19.5079 16.2499Z" fill="#F5EF91"/>
<path d="M19.6593 15.5109C19.5803 15.5987 19.5003 15.6854 19.4226 15.7742C19.388 15.8138 19.3832 15.8564 19.4333 15.8821C19.4419 15.8873 19.4517 15.8904 19.462 15.8911C19.4723 15.8919 19.4828 15.8904 19.4927 15.8866C19.5025 15.8828 19.5115 15.877 19.5189 15.8695C19.5262 15.862 19.5318 15.853 19.5351 15.8433C19.5667 15.7697 19.6207 15.7059 19.6896 15.6607C19.716 15.6352 19.7365 15.6047 19.7498 15.5714C19.7576 15.5592 19.7608 15.545 19.7587 15.5313C19.7567 15.5176 19.7495 15.5054 19.7385 15.4969C19.707 15.4749 19.6868 15.4953 19.6593 15.5109Z" fill="#F5EF91"/>
<path d="M19.839 14.6208C19.8563 14.6513 19.8778 14.6448 19.9065 14.6239C19.998 14.5561 20.0511 14.3867 20.0061 14.2911C19.9953 14.268 19.9852 14.2388 19.9486 14.2443C19.9227 14.2479 19.8921 14.2645 19.8956 14.2857C19.9086 14.3902 19.8526 14.4842 19.8357 14.5846C19.8356 14.5968 19.8367 14.609 19.839 14.6208Z" fill="#F5EF92"/>
<path d="M19.516 16.9191C19.5844 16.9644 19.6628 16.93 19.7155 16.8997C19.7818 16.8622 19.7034 16.8425 19.6808 16.8236C19.6438 16.7933 19.6662 16.7607 19.6717 16.7265C19.6811 16.6756 19.6519 16.6566 19.6077 16.6481C19.5636 16.6396 19.5362 16.6722 19.5292 16.7064C19.5153 16.7749 19.4984 16.845 19.516 16.9191Z" fill="#F5EF92"/>
<path d="M20.3138 15.7192C20.3276 15.7552 20.3508 15.7435 20.3734 15.7307C20.4382 15.694 20.5329 15.5118 20.526 15.4383C20.5236 15.4098 20.5205 15.3827 20.4869 15.3747C20.4533 15.3666 20.4449 15.3949 20.4296 15.4125C20.3644 15.4889 20.2941 15.6805 20.3138 15.7192Z" fill="#F5EF92"/>
<path d="M19.9901 16.2445C20.0893 16.158 20.179 16.0958 20.2082 15.9888C20.2146 15.9656 20.2234 15.9414 20.1918 15.9308C20.1677 15.9227 20.1444 15.922 20.1277 15.9472C20.0774 16.027 20.0041 16.0859 19.9363 16.1489C19.9126 16.1705 19.8704 16.2033 19.9021 16.237C19.913 16.2479 19.9277 16.2547 19.9438 16.2561C19.9598 16.2574 19.9762 16.2533 19.9901 16.2445Z" fill="#F5EF92"/>
<path d="M20.0006 16.4789C19.9819 16.4879 19.9639 16.4982 19.9465 16.5096C19.8996 16.5447 19.8683 16.6002 19.8942 16.6432C19.9266 16.7004 19.9794 16.6466 20.0203 16.6256C20.0415 16.6129 20.0607 16.5971 20.0771 16.5788C20.1129 16.5429 20.1871 16.5072 20.1522 16.4572C20.1142 16.4021 20.0505 16.4503 20.0006 16.4789Z" fill="#F5EF92"/>
<path d="M19.7506 15.1237C19.7619 15.1187 19.7726 15.1126 19.7827 15.1055C19.8245 15.0633 19.8971 15.0268 19.8781 14.9642C19.8639 14.917 19.8001 14.9446 19.7607 14.9594C19.6883 14.9894 19.6187 15.0459 19.6364 15.1189C19.6554 15.2018 19.7182 15.1306 19.7506 15.1237Z" fill="#F5EF92"/>
<path d="M20.8508 13.709C20.797 13.7394 20.7893 13.945 20.8371 13.9735C20.8452 13.9786 20.8552 13.9805 20.8652 13.9788C20.8751 13.9771 20.8842 13.9719 20.8907 13.9642C20.9323 13.9256 20.9244 13.7445 20.879 13.7136C20.8711 13.7085 20.8578 13.7099 20.8508 13.709Z" fill="#F5EF92"/>
<path d="M19.0553 16.7527C19.174 16.7107 19.2534 16.6761 19.3091 16.6018C19.3232 16.5828 19.3399 16.5597 19.3175 16.539C19.2995 16.5228 19.2803 16.5408 19.2618 16.5473C19.1709 16.5804 19.1361 16.6627 19.0553 16.7527Z" fill="#F5EF91"/>
</g>
<defs>
<clipPath id="clip0_65_1284">
<rect width="11.3578" height="10.4307" fill="white" transform="matrix(-0.870083 0.492905 0.492905 0.870083 18.6323 8.75)"/>
</clipPath>
</defs>
</svg>
